<?xml version="1.0" standalone="no"?>
<!DOCTYPE svg PUBLIC "-//W3C//DTD SVG 20010904//EN"
 "http://www.w3.org/TR/2001/REC-SVG-20010904/DTD/svg10.dtd">
<svg version="1.0" xmlns="http://www.w3.org/2000/svg"
 width="1280.000000pt" height="1276.000000pt" viewBox="0 0 1280.000000 1276.000000"
 preserveAspectRatio="xMidYMid meet">
<g transform="translate(0.000000,1276.000000) scale(0.100000,-0.100000)"
fill="#000000" stroke="none">
<path d="M6110 12749 c-36 -4 -153 -15 -260 -24 -794 -63 -1576 -283 -2307
-648 -265 -133 -631 -347 -593 -347 8 0 76 7 150 15 309 34 769 29 1083 -11
671 -85 1276 -302 1900 -681 78 -47 275 -175 438 -284 441 -294 542 -345 659
-337 74 5 181 72 303 188 108 102 187 205 249 326 89 171 127 321 135 524 10
272 -56 519 -214 796 -47 83 -194 285 -270 372 l-39 44 -139 18 c-77 10 -210
23 -295 29 -85 6 -191 16 -236 21 -93 12 -469 11 -564 -1z"/>
<path d="M7650 12624 c0 -4 26 -48 58 -98 261 -407 385 -767 383 -1108 -1
-422 -181 -790 -601 -1232 -61 -64 -108 -121 -105 -126 5 -8 857 -806 931
-872 21 -18 23 -17 275 184 836 664 1162 907 1544 1145 210 132 353 212 558
314 92 46 167 89 167 95 0 23 -267 264 -490 443 -726 580 -1654 1026 -2540
1221 -80 17 -153 34 -162 36 -10 3 -18 2 -18 -2z"/>
<path d="M3090 11609 c-143 -14 -240 -29 -348 -55 -95 -22 -109 -29 -185 -86
-402 -303 -813 -700 -1124 -1084 -658 -814 -1100 -1756 -1302 -2774 -32 -158
-71 -405 -71 -444 0 -11 25 30 55 92 239 494 762 872 1650 1191 554 200 1076
332 2392 607 1094 228 1404 303 1783 433 285 97 467 185 610 292 99 75 159
143 202 228 27 54 32 78 33 132 0 63 -2 70 -48 137 -279 408 -1256 924 -2237
1181 -496 130 -1034 187 -1410 150z"/>
<path d="M10885 10627 c-760 -488 -1605 -1109 -2172 -1596 -68 -57 -123 -108
-123 -113 0 -7 775 -986 811 -1022 18 -19 21 -18 178 57 969 466 1729 499
2365 105 250 -155 508 -417 709 -720 40 -59 73 -105 75 -103 6 6 -26 211 -59
376 -213 1073 -707 2086 -1418 2908 -168 193 -185 211 -196 211 -5 0 -82 -47
-170 -103z"/>
<path d="M7090 9793 c-348 -295 -883 -552 -1562 -748 -410 -119 -693 -184
-1598 -366 -789 -159 -998 -204 -1350 -295 -952 -244 -1567 -531 -2032 -948
-247 -221 -511 -590 -531 -741 -15 -117 -20 -429 -8 -575 7 -80 16 -201 22
-270 98 -1273 587 -2495 1402 -3503 64 -79 81 -96 93 -86 7 6 100 117 206 248
1396 1717 2614 3036 4208 4557 461 440 1220 1122 1839 1653 l283 244 -443 443
c-244 244 -448 444 -454 443 -5 0 -39 -25 -75 -56z"/>
<path d="M8125 8508 c-1743 -1318 -3436 -2971 -5486 -5353 -382 -445 -939
-1106 -939 -1116 0 -4 73 -80 163 -170 988 -995 2282 -1645 3642 -1829 83 -11
173 -25 202 -31 51 -12 51 -12 155 41 611 313 1019 920 1338 1996 129 431 204
761 420 1829 112 559 139 687 190 915 321 1448 707 2289 1272 2775 64 55 117
104 118 108 2 12 -813 1016 -825 1017 -5 0 -118 -82 -250 -182z"/>
<path d="M10570 8083 c-381 -57 -619 -168 -775 -360 -46 -56 -47 -59 -42 -114
9 -102 58 -191 407 -739 346 -544 494 -797 670 -1148 388 -774 578 -1434 622
-2153 22 -376 -23 -811 -124 -1177 -17 -62 -29 -115 -27 -117 3 -2 43 44 90
103 745 929 1217 2054 1354 3226 49 422 63 822 38 1124 -14 160 -20 179 -110
330 -330 555 -904 919 -1599 1017 -98 14 -432 19 -504 8z"/>
<path d="M9232 7296 c-273 -108 -514 -417 -705 -901 -173 -440 -301 -929 -513
-1950 -225 -1084 -292 -1388 -391 -1780 -263 -1043 -561 -1756 -931 -2235 -79
-101 -274 -304 -349 -362 -39 -30 -50 -44 -41 -50 15 -9 321 -2 543 13 1182
81 2313 488 3275 1178 254 182 449 344 703 584 137 129 139 131 192 241 318
662 282 1650 -105 2807 -315 946 -852 1912 -1303 2346 -115 110 -134 120 -247
129 -53 3 -76 0 -128 -20z"/>
</g>
</svg>
