<?xml version="1.0" encoding="UTF-8" standalone="no"?>
<!-- Created with Inkscape (http://www.inkscape.org/) -->

<svg
   xmlns:dc="http://purl.org/dc/elements/1.1/"
   xmlns:cc="http://creativecommons.org/ns#"
   xmlns:rdf="http://www.w3.org/1999/02/22-rdf-syntax-ns#"
   xmlns:svg="http://www.w3.org/2000/svg"
   xmlns="http://www.w3.org/2000/svg"
   xmlns:sodipodi="http://sodipodi.sourceforge.net/DTD/sodipodi-0.dtd"
   xmlns:inkscape="http://www.inkscape.org/namespaces/inkscape"
   width="744.09448819"
   height="1052.3622047"
   id="svg2"
   version="1.1"
   inkscape:version="0.48.5 r10040"
   sodipodi:docname="New document 1">
  <defs
     id="defs4" />
  <sodipodi:namedview
     id="base"
     pagecolor="#ffffff"
     bordercolor="#666666"
     borderopacity="1.0"
     inkscape:pageopacity="0.0"
     inkscape:pageshadow="2"
     inkscape:zoom="0.49497475"
     inkscape:cx="1080.1115"
     inkscape:cy="482.31643"
     inkscape:document-units="px"
     inkscape:current-layer="layer1"
     showgrid="false"
     inkscape:window-width="1366"
     inkscape:window-height="683"
     inkscape:window-x="-8"
     inkscape:window-y="-8"
     inkscape:window-maximized="1" />
  <metadata
     id="metadata7">
    <rdf:RDF>
      <cc:Work
         rdf:about="">
        <dc:format>image/svg+xml</dc:format>
        <dc:type
           rdf:resource="http://purl.org/dc/dcmitype/StillImage" />
        <dc:title></dc:title>
      </cc:Work>
    </rdf:RDF>
  </metadata>
  <g
     inkscape:label="Layer 1"
     inkscape:groupmode="layer"
     id="layer1">
    <g
       id="g3013">
      <path
         d="m 363.35821,864.33878 c -12.727,-0.93618 -32.817,-3.6284 -40.17,-5.383 -20.333,-4.8524 -43.798,-12.089 -53.554,-16.515 -3.592,-1.6298 -9.7209,-4.3725 -13.62,-6.0948 -3.8988,-1.7224 -10.127,-4.8997 -13.84,-7.0608 -3.7132,-2.1611 -9.0297,-5.0825 -11.815,-6.492 -2.7849,-1.4095 -5.3672,-2.9121 -5.7385,-3.3392 -1.0253,-1.1792 -9.1397,-6.7293 -11.815,-8.081 -3.0239,-1.528 -10.277,-6.8626 -17.195,-12.646 -2.9821,-2.4931 -8.1225,-6.7464 -11.423,-9.4516 -6.7937,-5.5682 -23.895,-22.33 -31.477,-30.852 -4.7596,-5.3497 -7.9861,-9.6403 -16.29,-21.662 -1.9235,-2.7849 -4.3764,-6.1267 -5.451,-7.4263 -1.0745,-1.2996 -2.4685,-2.9927 -3.0977,-3.7624 -2.2912,-2.8028 -8.8306,-13.009 -10.611,-16.56 -1.0046,-2.0041 -2.2208,-4.0995 -2.7027,-4.6564 -1.8143,-2.0969 -15.540999,-30.333 -18.373999,-37.795 -7.1184,-18.751 -15.657,-48.362 -18.01,-62.46 -5.6723,-33.978 -5.5476,-76.606 0.3228,-110.38 2.5439,-14.636 10.452,-41.937 17.504,-60.423 2.8383,-7.4412 15.280999,-32.902 19.794999,-40.507 3.9164,-6.5973 10.83,-17.527 11.317,-17.891 1.1648,-0.87062 8.5913,-11.069 16.493,-22.649 4.182,-6.1288 15.874,-19.064 26.514,-29.335 7.2438,-6.992 10.896,-10.168 25.808,-22.447 6.8564,-5.6454 14.258,-11.029 17.216,-12.521 1.4853,-0.74942 4.6752,-2.8987 7.0887,-4.7762 2.4136,-1.8775 6.9706,-4.7632 10.127,-6.4127 3.1562,-1.6495 9.0881,-4.9267 13.182,-7.2826 4.094,-2.356 10.17,-5.4649 13.502,-6.9086 3.3323,-1.4438 9.4006,-4.0887 13.485,-5.8775 9.7246,-4.259 20.383,-7.7341 38.013,-12.394 16.322,-4.3139 23.953,-5.779 40.301,-7.7373 27.048,-3.2401 43.118,-3.2397 70.212,0.002 16.351,1.9562 23.981,3.4217 40.301,7.7403 27.073,7.1644 43.427,13.569 68.393,26.785 15.058,7.9709 15.242,8.079 20.27,11.915 2.1308,1.6258 5.6634,3.9672 7.8501,5.2032 5.3012,2.9964 8.8795,5.7402 27.476,21.069 14.014,11.551 32.668,30.93 40.181,41.742 1.7744,2.5536 4.799,6.6826 6.7214,9.1755 1.9224,2.4929 4.8623,6.4192 6.5333,8.7253 1.6709,2.3061 3.4937,4.6757 4.0507,5.266 1.3109,1.3892 8.9711,13.385 12.658,19.823 5.1656,9.0193 16.182,31.707 19.078,39.292 7.0382,18.43 14.961,45.774 17.507,60.423 5.8704,33.775 5.9951,76.404 0.3228,110.38 -2.3558,14.111 -10.89,43.704 -18.025,62.501 -2.8533,7.5168 -16.537,35.668 -18.351,37.754 -0.4844,0.55697 -1.5634,2.3798 -2.3977,4.0507 -1.6822,3.3692 -8.9951,14.865 -10.892,17.122 -3.7192,4.4256 -6.1196,7.5413 -6.7796,8.7997 -0.4098,0.78122 -2.9104,4.1546 -5.5568,7.4965 -2.6465,3.3418 -5.618,7.3275 -6.6034,8.857 -2.9082,4.5141 -15.307,18.255 -23.686,26.249 -7.0841,6.7592 -10.358,9.6026 -25.124,21.823 -6.7516,5.5873 -14.465,11.245 -17.216,12.626 -2.6618,1.3372 -10.782,6.8864 -11.814,8.074 -0.3713,0.42704 -2.8018,1.8611 -5.401,3.1868 -2.5992,1.3257 -8.8271,4.6468 -13.84,7.3802 -5.0127,2.7335 -10.937,5.7944 -13.165,6.8021 -20.242,9.1557 -32.192,13.2 -61.646,20.861 -10.19,2.6503 -29.904,5.5137 -46.035,6.6863 -9.5408,0.69354 -30.881,0.67733 -40.507,-0.0307 z"
         id="path3069"
         inkscape:connector-curvature="0"
         style="fill:#040404" />
      <g
         transform="translate(17.389861,160.12705)"
         id="g3153"
         style="fill:#ffffff">
        <path
           d="m 540.83,154.52 c -4.0099,-1.3866 -11.402,-2.9983 -16.427,-3.5815 -8.2081,-0.95266 -9.8722,-1.7313 -16.381,-7.6646 -9.0275,-8.229 -37.6,-27.741 -52.66,-35.962 -24.139,-13.176 0.98804,-5.2158 34.187,10.831 24.329,11.759 48.678,26.856 61.357,38.044 2.0624,1.8197 -1.8805,1.1675 -10.076,-1.6666 z m -91.28,56.1 c -13.067,-13.998 -35.066,-32.504 -52.474,-44.141 -17.033,-11.387 -56.908,-30.067 -77.293,-36.21 -24.666,-7.4322 -49.048,-12.232 -67.376,-13.265 l -7.1429,-0.40227 10,-4.7178 c 24.155,-11.396 69.711,-21.872 103.57,-23.817 l 16.429,-0.94387 18.571,7.776 c 10.214,4.2768 25.015,11.016 32.89,14.977 14.671,7.3785 51.079,30.833 64.771,41.726 7.1399,5.6806 7.6068,6.4283 6.8658,10.995 -1.9245,11.859 -30.495,62.203 -35.105,61.859 -0.4675,-0.0349 -6.6357,-6.2615 -13.707,-13.837 z m -79.91,76.49 c -29.056,-26.815 -73.336,-53.2 -119.38,-71.135 -32.346,-12.6 -67.834,-19.422 -94.669,-18.199 l -16.811,0.76636 7.3794,-8.5182 c 11.264,-13.003 32.277,-31.757 50.654,-45.21 l 16.561,-12.123 16.657,0.97056 c 54.497,3.1754 87.753,11.467 127.63,31.821 36.543,18.654 60.51,36.244 81.312,59.679 12.447,14.022 12.455,14.05 6.1096,21.952 -12.598,15.69 -40.937,42.894 -56.963,54.682 -0.78777,0.57943 -9.077,-6.0076 -18.48,-14.685 z M 260.9,369.1 c -18.707,-12.056 -26.113,-15.999 -52.904,-28.162 -44.66,-20.277 -59.85,-24.266 -92.018,-24.165 -19.029,0.0595 -23.198,0.48986 -29.643,3.0603 -4.125,1.6451 -7.5,2.5039 -7.5,1.9085 0,-4.294 12.961,-43.599 18.396,-55.786 5.9807,-13.411 16.878,-33.182 22.367,-40.579 5.1488,-6.9392 47.918,-11.466 69.952,-7.4044 40.399,7.4474 89.88,27.071 126.43,50.139 27.191,17.162 57.016,42.393 55.324,46.801 -1.9578,5.1018 -49.562,36.082 -86.831,56.508 l -10.793,5.9152 -12.779,-8.2358 z m 29.96,125.78 c -0.48662,-2.1607 -1.4133,-6.1786 -2.0594,-8.9286 -4.0354,-17.177 -8.5358,-59.093 -8.5377,-79.517 l -10e-4,-13.088 15.23,-8.1328 c 57.891,-30.914 116.5,-75.726 155.74,-119.07 27.071,-29.904 39.273,-47.007 52.97,-74.248 l 12.452,-24.765 7.8234,0.97746 c 9.6853,1.2101 17.505,4.2566 38.582,15.031 22.111,11.303 31.718,17.887 38.102,26.11 l 5.3364,6.8742 -2.4956,13.126 c -5.5664,29.277 -13.796,47.507 -35.592,78.84 -16.829,24.193 -24.113,32.799 -49.349,58.311 -39.34,39.769 -98.795,83.307 -138.8,101.64 -23.464,10.754 -79.737,30.699 -86.758,30.751 -0.96717,0.007 -2.1566,-1.7549 -2.6433,-3.9156 z m 38.72,81.42 c -5.4848,-8.4408 -12.729,-20.168 -16.099,-26.061 -6.1144,-10.693 -15.339,-32.637 -14.2,-33.777 0.33094,-0.33094 6.9558,-2.435 14.722,-4.6756 16.945,-4.889 65.378,-23.783 80.97,-31.587 27.528,-13.778 65.565,-39.334 95.15,-63.929 20.929,-17.398 61.13,-56.866 74.357,-73.001 23.436,-28.587 47.14,-70.283 53.433,-93.988 l 3.3156,-12.49 3.7003,6.3666 c 7.3654,12.673 27.789,70.203 32.52,91.604 1.7176,7.7695 1.5957,8.6585 -3.0374,22.143 -2.6548,7.7266 -9.7278,24.013 -15.718,36.191 -15.825,32.174 -29.905,51.042 -64.854,86.906 -20.149,20.677 -23.172,23.156 -50.714,41.6 -51.612,34.562 -78.832,47.72 -124.24,60.055 -17.83,4.8438 -45.826,10.017 -54.123,10 -5.0556,-0.01 -5.5203,-0.47989 -15.188,-15.357 z m 90.69,70.09 c -12.477,-4.4818 -24.944,-10.066 -31.875,-14.276 -11.929,-7.2468 -30.086,-21.947 -28.632,-23.181 0.67158,-0.57051 9.2568,-2.5389 19.078,-4.3743 45.865,-8.5708 96.799,-30.421 144.29,-61.896 62.622,-41.507 108.54,-91.931 134.88,-148.13 l 3.6836,-7.8571 -0.58008,20 c -0.8177,28.193 -6.8342,57.569 -17.702,86.429 l -5.1104,13.571 -20.802,20.742 c -48.199,48.059 -103.07,88.186 -149.59,109.4 -19.675,8.9712 -38.694,12.795 -47.645,9.5799 z m 24.28,31.66 c 0,-0.41898 1.5492,-3.8191 3.4428,-7.5558 3.3862,-6.6822 3.7255,-6.9063 20.634,-13.625 18.746,-7.4487 43.133,-20.859 66.764,-36.714 8.3164,-5.5797 80.456,-74.81 80.865,-74.4007 0.50635,0.50635 -12.03261,23.61397 -29.08573,44.47777 -14.77969,18.08236 -34.20709,34.16506 -36.0507,36.24323 -9.04082,10.19107 -68.84657,40.927 -93.42857,48.623 -12.828,4.0164 -13.141,4.0865 -13.141,2.9513 z M 332.8,688.72 c -9.2112,-1.4615 -18.85,-3.7442 -21.419,-5.0727 -12.013,-6.2122 -39.473,-31.087 -64.574,-58.496 -24.109,-26.326 -41.732,-54.774 -58.641,-94.664 -8.2274,-19.409 -15.033,-43.466 -23.712,-83.823 -4.4491,-20.687 -4.628,-22.813 -5.1673,-61.429 -0.34485,-24.692 -0.0235,-40.801 0.83976,-42.094 1.2097,-1.811 2.7109,-1.6698 11.124,1.0462 21.765,7.0263 52.019,22.2 75.475,37.855 l 15.679,10.464 0.89623,29.221 c 0.99798,32.539 2.4067,44.16 8.3907,69.221 4.7715,19.983 8.3198,28.939 23.771,60 14.176,28.498 21.106,39.21 36.604,56.584 26.58,29.798 45.878,43.516 74.003,52.608 10.556,3.4121 19.673,6.6279 20.261,7.1462 0.5879,0.51828 -2.9478,5.224 -7.8571,10.457 l -8.9261,9.5148 -13.466,2.202 c -17.544,2.8688 -42.356,2.5778 -63.282,-0.74238 z M 247.41,664.4 C 218.958,649.244 207.544,642.205 189.532,628.706 160.129,606.67 142.231,587.336 118.723,552.211 104.405,530.818 99.618,521.105 88.137,490.15 79.0239,465.579 78.8829,463.937 82.456,423.996 85.37,391.422 86.2811,386.549 94.877,357.547 l 7.3615,-24.836 15.843,0.94716 c 17.25,1.0313 24.506,2.4963 24.009,4.8473 -0.17598,0.83174 -0.3743,16.509 -0.4407,34.838 -0.26923,74.315 11.392,126.59 42.651,191.18 17.688,36.552 38.738,66.08 65.919,92.465 8.2765,8.0343 14.084,14.615 12.905,14.623 -1.1786,0.009 -8.25,-3.2381 -15.714,-7.2142 z M 70.92,364.9 c 0.70102,-12.169 1.195495,-25.42492 5.297795,-26.99892 1.7931,-0.68806 17.491342,-9.40493 13.967037,2.38663 -2.693377,9.01145 -7.962362,17.56795 -9.191872,25.6907 L 70.189798,437.34944 70.92002,364.9006 z"
           id="path3026" />
      </g>
    </g>
  </g>
</svg>
