<?xml version="1.0" encoding="iso-8859-1"?>
<!-- Uploaded to: SVG Repo, www.svgrepo.com, Generator: SVG Repo Mixer Tools -->
<svg fill="#000000" height="800px" width="800px" version="1.1" id="Layer_1" xmlns="http://www.w3.org/2000/svg" xmlns:xlink="http://www.w3.org/1999/xlink" 
	 viewBox="0 0 512 512" xml:space="preserve">
<g>
	<g>
		<g>
			<path d="M232.9,398.566c1.664,1.664,3.849,2.5,6.033,2.5c2.185,0,4.369-0.836,6.033-2.5c3.337-3.336,3.337-8.73,0-12.066
				l-85.333-85.333c-3.337-3.336-8.73-3.336-12.066,0c-3.336,3.337-3.336,8.73,0,12.066L232.9,398.566z"/>
			<path d="M360.9,355.9l11.034,11.034L360.9,377.967c-3.337,3.337-3.337,8.73,0,12.066c1.664,1.664,3.849,2.5,6.033,2.5
				c2.185,0,4.369-0.836,6.033-2.5L384,379l11.034,11.034c1.664,1.664,3.849,2.5,6.033,2.5c2.185,0,4.369-0.836,6.033-2.5
				c3.337-3.336,3.337-8.73,0-12.066l-11.034-11.034L407.1,355.9c3.337-3.337,3.337-8.73,0-12.066c-3.336-3.337-8.73-3.337-12.066,0
				L384,354.867l-11.034-11.034c-3.337-3.337-8.73-3.337-12.066,0C357.564,347.17,357.564,352.563,360.9,355.9z"/>
			<path d="M290.133,264.533c0,14.114,11.486,25.6,25.6,25.6s25.6-11.486,25.6-25.6s-11.486-25.6-25.6-25.6
				S290.133,250.419,290.133,264.533z M324.267,264.533c0,4.702-3.831,8.533-8.533,8.533s-8.533-3.831-8.533-8.533
				c0-4.702,3.831-8.533,8.533-8.533S324.267,259.831,324.267,264.533z"/>
			<path d="M321.775,139.034c-0.794-0.785-1.741-1.408-2.782-1.843c-2.082-0.862-4.437-0.862-6.519,0
				c-1.041,0.435-1.988,1.058-2.773,1.843l-34.133,34.133c-3.336,3.337-3.336,8.73,0,12.066c3.337,3.336,8.73,3.336,12.066,0
				l19.567-19.567v47.667c0,4.71,3.823,8.533,8.533,8.533s8.533-3.823,8.533-8.533v-47.667l19.567,19.567
				c1.664,1.664,3.849,2.5,6.033,2.5c2.185,0,4.369-0.836,6.033-2.5c3.337-3.337,3.337-8.73,0-12.066L321.775,139.034z"/>
			<path d="M128,238.933c-14.114,0-25.6,11.486-25.6,25.6s11.486,25.6,25.6,25.6s25.6-11.486,25.6-25.6S142.114,238.933,128,238.933
				z M128,273.067c-4.702,0-8.533-3.831-8.533-8.533c0-4.702,3.831-8.533,8.533-8.533c4.702,0,8.533,3.831,8.533,8.533
				C136.533,269.235,132.702,273.067,128,273.067z"/>
			<path d="M139.034,168.166l11.034,11.034l-11.034,11.034c-3.336,3.337-3.336,8.73,0,12.066c1.664,1.664,3.849,2.5,6.033,2.5
				c2.185,0,4.369-0.836,6.033-2.5l11.034-11.034l11.034,11.034c1.664,1.664,3.849,2.5,6.033,2.5c2.185,0,4.369-0.836,6.033-2.5
				c3.336-3.337,3.336-8.73,0-12.066L174.199,179.2l11.034-11.034c3.336-3.337,3.336-8.73,0-12.066
				c-3.337-3.337-8.73-3.337-12.066,0l-11.034,11.034L151.1,156.1c-3.337-3.337-8.73-3.337-12.066,0
				C135.697,159.437,135.697,164.83,139.034,168.166z"/>
			<path d="M162.133,102.4h187.733c4.71,0,8.533-3.823,8.533-8.533v-51.2c0-4.71-3.823-8.533-8.533-8.533h-45.585
				C297.148,13.995,277.854,0,256,0s-41.148,13.995-48.282,34.133h-45.585c-4.71,0-8.533,3.823-8.533,8.533v51.2
				C153.6,98.577,157.423,102.4,162.133,102.4z M170.667,51.2h43.529c4.053,0,7.552-2.859,8.363-6.835
				c3.217-15.821,17.28-27.298,33.442-27.298c16.171,0,30.234,11.477,33.442,27.298c0.811,3.977,4.309,6.835,8.363,6.835h43.529
				v34.133H170.667V51.2z"/>
			<path d="M435.2,34.133H384c-4.71,0-8.533,3.823-8.533,8.533c0,4.71,3.823,8.533,8.533,8.533h51.2c12.442,0,25.6,13.158,25.6,25.6
				v392.533c0,12.442-13.158,25.6-25.6,25.6H76.8c-12.442,0-25.6-13.158-25.6-25.6V76.8c0-12.442,13.158-25.6,25.6-25.6H128
				c4.71,0,8.533-3.823,8.533-8.533c0-4.71-3.823-8.533-8.533-8.533H76.8c-21.931,0-42.667,20.736-42.667,42.667v392.533
				C34.133,491.264,54.869,512,76.8,512h358.4c21.931,0,42.667-20.736,42.667-42.667V76.8
				C477.867,54.869,457.131,34.133,435.2,34.133z"/>
			<path d="M264.533,460.8c14.114,0,25.6-11.486,25.6-25.6s-11.486-25.6-25.6-25.6c-14.114,0-25.6,11.486-25.6,25.6
				S250.419,460.8,264.533,460.8z M264.533,426.667c4.702,0,8.533,3.831,8.533,8.533s-3.831,8.533-8.533,8.533
				c-4.702,0-8.533-3.831-8.533-8.533S259.832,426.667,264.533,426.667z"/>
			<path d="M264.533,273.067c4.71,0,8.533-3.823,8.533-8.533c0-4.71-3.823-8.533-8.533-8.533H179.2c-4.71,0-8.533,3.823-8.533,8.533
				c0,4.71,3.823,8.533,8.533,8.533H264.533z"/>
			<path d="M256,34.133c-9.412,0-17.067,7.654-17.067,17.067c0,9.412,7.654,17.067,17.067,17.067
				c9.412,0,17.067-7.654,17.067-17.067C273.067,41.788,265.412,34.133,256,34.133z"/>
		</g>
	</g>
</g>
</svg>